<?xml version="1.0" encoding="UTF-8"?>
<svg xmlns="http://www.w3.org/2000/svg" width="512" height="512" viewBox="0 0 512 512" version="1.1" role="img" aria-label="Siliver Silen">
  <title>Siliver Silen</title>
  <defs>
    <linearGradient id="mint" gradientUnits="userSpaceOnUse" x1="0" y1="0" x2="0" y2="512"><stop offset="0" stop-color="#CDEEDB"/><stop offset="1" stop-color="#9FD8B9"/></linearGradient>
    <linearGradient id="mBlade0" gradientUnits="userSpaceOnUse" x1="447.93" y1="121.61" x2="378.53" y2="170.20"><stop offset="0.0" stop-color="#FCF3CE"/><stop offset="0.14" stop-color="#EFCE72"/><stop offset="0.34" stop-color="#D3A238"/><stop offset="0.6" stop-color="#9A6518"/><stop offset="0.82" stop-color="#71460F"/><stop offset="1.0" stop-color="#C89530"/></linearGradient>
    <linearGradient id="mBlade1" gradientUnits="userSpaceOnUse" x1="276.42" y1="489.41" x2="269.04" y2="405.02"><stop offset="0.0" stop-color="#FCF3CE"/><stop offset="0.14" stop-color="#EFCE72"/><stop offset="0.34" stop-color="#D3A238"/><stop offset="0.6" stop-color="#9A6518"/><stop offset="0.82" stop-color="#71460F"/><stop offset="1.0" stop-color="#C89530"/></linearGradient>
    <linearGradient id="mBlade2" gradientUnits="userSpaceOnUse" x1="43.65" y1="156.98" x2="120.43" y2="192.78"><stop offset="0.0" stop-color="#FCF3CE"/><stop offset="0.14" stop-color="#EFCE72"/><stop offset="0.34" stop-color="#D3A238"/><stop offset="0.6" stop-color="#9A6518"/><stop offset="0.82" stop-color="#71460F"/><stop offset="1.0" stop-color="#C89530"/></linearGradient>
    <linearGradient id="mS" gradientUnits="userSpaceOnUse" x1="157.20" y1="117.12" x2="157.20" y2="394.88"><stop offset="0.0" stop-color="#FFF6D3"/><stop offset="0.18" stop-color="#F0CE6C"/><stop offset="0.42" stop-color="#C68C20"/><stop offset="0.52" stop-color="#9A6716"/><stop offset="0.8" stop-color="#E9C463"/><stop offset="1.0" stop-color="#7E4C0D"/></linearGradient>
    <linearGradient id="sheenMark" gradientUnits="userSpaceOnUse" x1="0" y1="32.0" x2="0" y2="368.0"><stop offset="0" stop-color="#FFFFFF" stop-opacity="0.22"/><stop offset="0.5" stop-color="#FFFFFF" stop-opacity="0.03"/><stop offset="1" stop-color="#FFFFFF" stop-opacity="0"/></linearGradient>
  </defs>
  <rect width="512" height="512" fill="url(#mint)"/>
  <g transform="translate(4 7)" fill="#28553E" opacity="0.22"><path d="M203.98 47.35C208.02 44.97 219.70 36.33 228.23 33.08C236.77 29.84 246.10 28.84 255.20 27.87C264.31 26.91 273.66 26.79 282.87 27.29C292.08 27.80 301.38 29.04 310.46 30.90C319.53 32.77 328.59 35.33 337.33 38.47C346.07 41.61 354.69 45.42 362.91 49.76C371.12 54.09 379.12 59.06 386.64 64.48C394.17 69.91 401.38 75.92 408.05 82.31C414.73 88.70 421.01 95.62 426.71 102.83C432.41 110.05 437.63 117.72 442.24 125.59C446.85 133.47 450.93 141.72 454.37 150.08C457.80 158.44 460.66 167.10 462.87 175.76C465.08 184.42 466.67 193.29 467.63 202.06C468.58 210.83 468.90 219.70 468.60 228.39C468.30 237.07 467.36 245.76 465.83 254.17C464.30 262.57 462.14 270.89 459.44 278.82C456.73 286.75 453.42 294.50 449.59 301.76C445.76 309.02 441.38 316.03 436.46 322.40C431.55 328.76 426.64 335.17 420.08 339.97C413.53 344.77 400.96 349.33 397.14 351.20C397.45 347.53 397.95 336.00 399.01 329.18C400.06 322.36 402.18 316.52 403.48 310.26C404.79 304.01 405.97 297.85 406.84 291.66C407.72 285.47 408.37 279.30 408.73 273.13C409.10 266.97 409.21 260.80 409.04 254.66C408.87 248.53 408.43 242.39 407.70 236.30C406.98 230.20 405.98 224.12 404.69 218.10C403.41 212.07 401.84 206.08 399.98 200.15C398.13 194.23 395.99 188.34 393.55 182.56C391.11 176.77 388.39 171.03 385.36 165.42C382.33 159.81 379.02 154.27 375.39 148.87C371.77 143.48 367.85 138.18 363.63 133.06C359.40 127.94 354.88 122.93 350.05 118.13C345.22 113.34 340.08 108.69 334.65 104.28C329.21 99.86 323.47 95.63 317.44 91.67C311.41 87.70 305.08 83.95 298.46 80.49C291.84 77.04 284.93 73.83 277.74 70.91C270.55 68.00 263.09 65.40 255.33 63.01C247.56 60.62 239.72 59.19 231.16 56.58C222.60 53.97 208.51 48.89 203.98 47.35Z"/><path d="M462.71 315.27C462.75 319.96 464.39 334.40 462.93 343.41C461.48 352.43 457.68 361.01 453.96 369.37C450.25 377.74 445.68 385.90 440.63 393.62C435.59 401.34 429.86 408.78 423.71 415.71C417.56 422.64 410.81 429.20 403.72 435.20C396.63 441.20 389.02 446.76 381.16 451.71C373.29 456.65 365.00 461.09 356.54 464.90C348.08 468.70 339.27 471.94 330.39 474.53C321.52 477.12 312.39 479.09 303.29 480.42C294.20 481.75 284.94 482.44 275.82 482.49C266.69 482.55 257.50 481.95 248.54 480.75C239.58 479.54 230.66 477.69 222.05 475.27C213.45 472.85 204.98 469.80 196.90 466.24C188.83 462.69 180.99 458.52 173.61 453.92C166.24 449.32 159.19 444.16 152.67 438.63C146.16 433.11 140.04 427.08 134.52 420.77C129.00 414.46 123.95 407.72 119.58 400.77C115.20 393.82 111.32 386.53 108.27 379.09C105.21 371.64 102.12 364.19 101.24 356.12C100.36 348.04 102.70 334.88 102.99 330.63C106.01 332.73 115.74 338.93 121.12 343.26C126.50 347.58 130.50 352.34 135.26 356.59C140.03 360.85 144.78 364.95 149.70 368.80C154.62 372.66 159.64 376.30 164.80 379.70C169.95 383.10 175.24 386.28 180.64 389.20C186.04 392.12 191.57 394.81 197.21 397.23C202.85 399.65 208.62 401.82 214.48 403.72C220.34 405.62 226.31 407.26 232.37 408.62C238.43 409.97 244.60 411.06 250.83 411.84C257.06 412.63 263.39 413.13 269.76 413.32C276.14 413.51 282.59 413.40 289.08 412.96C295.56 412.52 302.11 411.78 308.66 410.68C315.21 409.58 321.80 408.16 328.37 406.38C334.94 404.59 341.54 402.47 348.07 399.97C354.61 397.47 361.15 394.62 367.60 391.38C374.04 388.13 380.46 384.52 386.76 380.52C393.07 376.52 399.30 372.14 405.42 367.37C411.54 362.60 417.52 357.44 423.47 351.91C429.42 346.38 434.58 340.31 441.12 334.20C447.66 328.09 459.11 318.43 462.71 315.27Z"/><path d="M101.31 405.38C97.23 403.07 83.91 397.27 76.83 391.50C69.75 385.73 64.22 378.16 58.83 370.75C53.44 363.35 48.67 355.31 44.50 347.09C40.33 338.86 36.76 330.18 33.83 321.39C30.91 312.59 28.60 303.47 26.95 294.33C25.30 285.19 24.29 275.82 23.94 266.54C23.58 257.25 23.88 247.85 24.82 238.62C25.76 229.39 27.36 220.14 29.55 211.16C31.75 202.18 34.60 193.29 38.00 184.75C41.40 176.20 45.43 167.84 49.94 159.91C54.46 151.98 59.57 144.33 65.09 137.17C70.61 130.01 76.68 123.21 83.08 116.97C89.47 110.72 96.35 104.91 103.47 99.70C110.59 94.49 118.12 89.77 125.79 85.69C133.46 81.61 141.46 78.08 149.50 75.20C157.54 72.32 165.82 70.03 174.04 68.41C182.27 66.79 190.63 65.78 198.84 65.47C207.04 65.15 215.30 65.44 223.27 66.52C231.24 67.59 239.24 68.64 246.67 71.92C254.11 75.19 264.34 83.80 267.88 86.17C264.54 87.74 254.31 93.07 247.87 95.56C241.44 98.06 235.32 99.15 229.25 101.14C223.18 103.14 217.26 105.20 211.46 107.54C205.66 109.88 199.99 112.40 194.47 115.17C188.95 117.93 183.56 120.92 178.33 124.13C173.09 127.35 168.00 130.80 163.09 134.47C158.17 138.15 153.40 142.05 148.83 146.18C144.26 150.30 139.84 154.66 135.64 159.23C131.44 163.80 127.42 168.60 123.62 173.60C119.83 178.61 116.22 183.83 112.88 189.26C109.53 194.69 106.39 200.33 103.53 206.16C100.67 212.00 98.04 218.04 95.72 224.26C93.39 230.48 91.32 236.91 89.58 243.49C87.84 250.07 86.38 256.84 85.28 263.75C84.18 270.66 83.38 277.75 82.96 284.96C82.55 292.16 82.46 299.52 82.78 306.98C83.09 314.44 83.77 322.03 84.84 329.71C85.91 337.40 87.39 345.16 89.20 353.08C91.02 361.00 93.70 368.50 95.72 377.22C97.73 385.94 100.38 400.69 101.31 405.38Z"/><path d="M354.80 308.91Q354.80 335.69 340.47 355.55Q326.14 375.40 300.30 385.14Q274.45 394.88 238.11 394.88Q195.97 394.88 160.95 380.65V307.04Q177.80 319.40 198.22 326.99Q218.63 334.57 236.24 334.57Q249.54 334.57 256.84 329.79Q264.15 325.02 264.15 315.84Q264.15 309.29 260.50 304.32Q256.84 299.36 249.44 295.05Q242.05 290.74 222.01 283.25Q157.20 258.34 157.20 202.71Q157.20 163.76 186.79 140.44Q216.39 117.12 266.21 117.12Q280.25 117.12 292.05 118.24Q303.85 119.37 313.50 121.05Q323.15 122.74 340.56 127.42V195.78Q306.66 177.24 273.89 177.24Q260.40 177.24 252.16 182.30Q243.92 187.36 243.92 196.16Q243.92 204.59 250.57 210.11Q257.22 215.64 278.38 224.44Q320.15 241.30 337.47 261.34Q354.80 281.38 354.80 308.91Z"/></g>
  <g stroke="#54330C" stroke-width="3.2" stroke-linejoin="round" stroke-opacity="0.85"><path d="M203.98 47.35C208.02 44.97 219.70 36.33 228.23 33.08C236.77 29.84 246.10 28.84 255.20 27.87C264.31 26.91 273.66 26.79 282.87 27.29C292.08 27.80 301.38 29.04 310.46 30.90C319.53 32.77 328.59 35.33 337.33 38.47C346.07 41.61 354.69 45.42 362.91 49.76C371.12 54.09 379.12 59.06 386.64 64.48C394.17 69.91 401.38 75.92 408.05 82.31C414.73 88.70 421.01 95.62 426.71 102.83C432.41 110.05 437.63 117.72 442.24 125.59C446.85 133.47 450.93 141.72 454.37 150.08C457.80 158.44 460.66 167.10 462.87 175.76C465.08 184.42 466.67 193.29 467.63 202.06C468.58 210.83 468.90 219.70 468.60 228.39C468.30 237.07 467.36 245.76 465.83 254.17C464.30 262.57 462.14 270.89 459.44 278.82C456.73 286.75 453.42 294.50 449.59 301.76C445.76 309.02 441.38 316.03 436.46 322.40C431.55 328.76 426.64 335.17 420.08 339.97C413.53 344.77 400.96 349.33 397.14 351.20C397.45 347.53 397.95 336.00 399.01 329.18C400.06 322.36 402.18 316.52 403.48 310.26C404.79 304.01 405.97 297.85 406.84 291.66C407.72 285.47 408.37 279.30 408.73 273.13C409.10 266.97 409.21 260.80 409.04 254.66C408.87 248.53 408.43 242.39 407.70 236.30C406.98 230.20 405.98 224.12 404.69 218.10C403.41 212.07 401.84 206.08 399.98 200.15C398.13 194.23 395.99 188.34 393.55 182.56C391.11 176.77 388.39 171.03 385.36 165.42C382.33 159.81 379.02 154.27 375.39 148.87C371.77 143.48 367.85 138.18 363.63 133.06C359.40 127.94 354.88 122.93 350.05 118.13C345.22 113.34 340.08 108.69 334.65 104.28C329.21 99.86 323.47 95.63 317.44 91.67C311.41 87.70 305.08 83.95 298.46 80.49C291.84 77.04 284.93 73.83 277.74 70.91C270.55 68.00 263.09 65.40 255.33 63.01C247.56 60.62 239.72 59.19 231.16 56.58C222.60 53.97 208.51 48.89 203.98 47.35Z" fill="url(#mBlade0)"/><path d="M462.71 315.27C462.75 319.96 464.39 334.40 462.93 343.41C461.48 352.43 457.68 361.01 453.96 369.37C450.25 377.74 445.68 385.90 440.63 393.62C435.59 401.34 429.86 408.78 423.71 415.71C417.56 422.64 410.81 429.20 403.72 435.20C396.63 441.20 389.02 446.76 381.16 451.71C373.29 456.65 365.00 461.09 356.54 464.90C348.08 468.70 339.27 471.94 330.39 474.53C321.52 477.12 312.39 479.09 303.29 480.42C294.20 481.75 284.94 482.44 275.82 482.49C266.69 482.55 257.50 481.95 248.54 480.75C239.58 479.54 230.66 477.69 222.05 475.27C213.45 472.85 204.98 469.80 196.90 466.24C188.83 462.69 180.99 458.52 173.61 453.92C166.24 449.32 159.19 444.16 152.67 438.63C146.16 433.11 140.04 427.08 134.52 420.77C129.00 414.46 123.95 407.72 119.58 400.77C115.20 393.82 111.32 386.53 108.27 379.09C105.21 371.64 102.12 364.19 101.24 356.12C100.36 348.04 102.70 334.88 102.99 330.63C106.01 332.73 115.74 338.93 121.12 343.26C126.50 347.58 130.50 352.34 135.26 356.59C140.03 360.85 144.78 364.95 149.70 368.80C154.62 372.66 159.64 376.30 164.80 379.70C169.95 383.10 175.24 386.28 180.64 389.20C186.04 392.12 191.57 394.81 197.21 397.23C202.85 399.65 208.62 401.82 214.48 403.72C220.34 405.62 226.31 407.26 232.37 408.62C238.43 409.97 244.60 411.06 250.83 411.84C257.06 412.63 263.39 413.13 269.76 413.32C276.14 413.51 282.59 413.40 289.08 412.96C295.56 412.52 302.11 411.78 308.66 410.68C315.21 409.58 321.80 408.16 328.37 406.38C334.94 404.59 341.54 402.47 348.07 399.97C354.61 397.47 361.15 394.62 367.60 391.38C374.04 388.13 380.46 384.52 386.76 380.52C393.07 376.52 399.30 372.14 405.42 367.37C411.54 362.60 417.52 357.44 423.47 351.91C429.42 346.38 434.58 340.31 441.12 334.20C447.66 328.09 459.11 318.43 462.71 315.27Z" fill="url(#mBlade1)"/><path d="M101.31 405.38C97.23 403.07 83.91 397.27 76.83 391.50C69.75 385.73 64.22 378.16 58.83 370.75C53.44 363.35 48.67 355.31 44.50 347.09C40.33 338.86 36.76 330.18 33.83 321.39C30.91 312.59 28.60 303.47 26.95 294.33C25.30 285.19 24.29 275.82 23.94 266.54C23.58 257.25 23.88 247.85 24.82 238.62C25.76 229.39 27.36 220.14 29.55 211.16C31.75 202.18 34.60 193.29 38.00 184.75C41.40 176.20 45.43 167.84 49.94 159.91C54.46 151.98 59.57 144.33 65.09 137.17C70.61 130.01 76.68 123.21 83.08 116.97C89.47 110.72 96.35 104.91 103.47 99.70C110.59 94.49 118.12 89.77 125.79 85.69C133.46 81.61 141.46 78.08 149.50 75.20C157.54 72.32 165.82 70.03 174.04 68.41C182.27 66.79 190.63 65.78 198.84 65.47C207.04 65.15 215.30 65.44 223.27 66.52C231.24 67.59 239.24 68.64 246.67 71.92C254.11 75.19 264.34 83.80 267.88 86.17C264.54 87.74 254.31 93.07 247.87 95.56C241.44 98.06 235.32 99.15 229.25 101.14C223.18 103.14 217.26 105.20 211.46 107.54C205.66 109.88 199.99 112.40 194.47 115.17C188.95 117.93 183.56 120.92 178.33 124.13C173.09 127.35 168.00 130.80 163.09 134.47C158.17 138.15 153.40 142.05 148.83 146.18C144.26 150.30 139.84 154.66 135.64 159.23C131.44 163.80 127.42 168.60 123.62 173.60C119.83 178.61 116.22 183.83 112.88 189.26C109.53 194.69 106.39 200.33 103.53 206.16C100.67 212.00 98.04 218.04 95.72 224.26C93.39 230.48 91.32 236.91 89.58 243.49C87.84 250.07 86.38 256.84 85.28 263.75C84.18 270.66 83.38 277.75 82.96 284.96C82.55 292.16 82.46 299.52 82.78 306.98C83.09 314.44 83.77 322.03 84.84 329.71C85.91 337.40 87.39 345.16 89.20 353.08C91.02 361.00 93.70 368.50 95.72 377.22C97.73 385.94 100.38 400.69 101.31 405.38Z" fill="url(#mBlade2)"/><path d="M354.80 308.91Q354.80 335.69 340.47 355.55Q326.14 375.40 300.30 385.14Q274.45 394.88 238.11 394.88Q195.97 394.88 160.95 380.65V307.04Q177.80 319.40 198.22 326.99Q218.63 334.57 236.24 334.57Q249.54 334.57 256.84 329.79Q264.15 325.02 264.15 315.84Q264.15 309.29 260.50 304.32Q256.84 299.36 249.44 295.05Q242.05 290.74 222.01 283.25Q157.20 258.34 157.20 202.71Q157.20 163.76 186.79 140.44Q216.39 117.12 266.21 117.12Q280.25 117.12 292.05 118.24Q303.85 119.37 313.50 121.05Q323.15 122.74 340.56 127.42V195.78Q306.66 177.24 273.89 177.24Q260.40 177.24 252.16 182.30Q243.92 187.36 243.92 196.16Q243.92 204.59 250.57 210.11Q257.22 215.64 278.38 224.44Q320.15 241.30 337.47 261.34Q354.80 281.38 354.80 308.91Z" fill="url(#mS)"/></g>
  <g fill="url(#sheenMark)"><path d="M203.98 47.35C208.02 44.97 219.70 36.33 228.23 33.08C236.77 29.84 246.10 28.84 255.20 27.87C264.31 26.91 273.66 26.79 282.87 27.29C292.08 27.80 301.38 29.04 310.46 30.90C319.53 32.77 328.59 35.33 337.33 38.47C346.07 41.61 354.69 45.42 362.91 49.76C371.12 54.09 379.12 59.06 386.64 64.48C394.17 69.91 401.38 75.92 408.05 82.31C414.73 88.70 421.01 95.62 426.71 102.83C432.41 110.05 437.63 117.72 442.24 125.59C446.85 133.47 450.93 141.72 454.37 150.08C457.80 158.44 460.66 167.10 462.87 175.76C465.08 184.42 466.67 193.29 467.63 202.06C468.58 210.83 468.90 219.70 468.60 228.39C468.30 237.07 467.36 245.76 465.83 254.17C464.30 262.57 462.14 270.89 459.44 278.82C456.73 286.75 453.42 294.50 449.59 301.76C445.76 309.02 441.38 316.03 436.46 322.40C431.55 328.76 426.64 335.17 420.08 339.97C413.53 344.77 400.96 349.33 397.14 351.20C397.45 347.53 397.95 336.00 399.01 329.18C400.06 322.36 402.18 316.52 403.48 310.26C404.79 304.01 405.97 297.85 406.84 291.66C407.72 285.47 408.37 279.30 408.73 273.13C409.10 266.97 409.21 260.80 409.04 254.66C408.87 248.53 408.43 242.39 407.70 236.30C406.98 230.20 405.98 224.12 404.69 218.10C403.41 212.07 401.84 206.08 399.98 200.15C398.13 194.23 395.99 188.34 393.55 182.56C391.11 176.77 388.39 171.03 385.36 165.42C382.33 159.81 379.02 154.27 375.39 148.87C371.77 143.48 367.85 138.18 363.63 133.06C359.40 127.94 354.88 122.93 350.05 118.13C345.22 113.34 340.08 108.69 334.65 104.28C329.21 99.86 323.47 95.63 317.44 91.67C311.41 87.70 305.08 83.95 298.46 80.49C291.84 77.04 284.93 73.83 277.74 70.91C270.55 68.00 263.09 65.40 255.33 63.01C247.56 60.62 239.72 59.19 231.16 56.58C222.60 53.97 208.51 48.89 203.98 47.35Z"/><path d="M462.71 315.27C462.75 319.96 464.39 334.40 462.93 343.41C461.48 352.43 457.68 361.01 453.96 369.37C450.25 377.74 445.68 385.90 440.63 393.62C435.59 401.34 429.86 408.78 423.71 415.71C417.56 422.64 410.81 429.20 403.72 435.20C396.63 441.20 389.02 446.76 381.16 451.71C373.29 456.65 365.00 461.09 356.54 464.90C348.08 468.70 339.27 471.94 330.39 474.53C321.52 477.12 312.39 479.09 303.29 480.42C294.20 481.75 284.94 482.44 275.82 482.49C266.69 482.55 257.50 481.95 248.54 480.75C239.58 479.54 230.66 477.69 222.05 475.27C213.45 472.85 204.98 469.80 196.90 466.24C188.83 462.69 180.99 458.52 173.61 453.92C166.24 449.32 159.19 444.16 152.67 438.63C146.16 433.11 140.04 427.08 134.52 420.77C129.00 414.46 123.95 407.72 119.58 400.77C115.20 393.82 111.32 386.53 108.27 379.09C105.21 371.64 102.12 364.19 101.24 356.12C100.36 348.04 102.70 334.88 102.99 330.63C106.01 332.73 115.74 338.93 121.12 343.26C126.50 347.58 130.50 352.34 135.26 356.59C140.03 360.85 144.78 364.95 149.70 368.80C154.62 372.66 159.64 376.30 164.80 379.70C169.95 383.10 175.24 386.28 180.64 389.20C186.04 392.12 191.57 394.81 197.21 397.23C202.85 399.65 208.62 401.82 214.48 403.72C220.34 405.62 226.31 407.26 232.37 408.62C238.43 409.97 244.60 411.06 250.83 411.84C257.06 412.63 263.39 413.13 269.76 413.32C276.14 413.51 282.59 413.40 289.08 412.96C295.56 412.52 302.11 411.78 308.66 410.68C315.21 409.58 321.80 408.16 328.37 406.38C334.94 404.59 341.54 402.47 348.07 399.97C354.61 397.47 361.15 394.62 367.60 391.38C374.04 388.13 380.46 384.52 386.76 380.52C393.07 376.52 399.30 372.14 405.42 367.37C411.54 362.60 417.52 357.44 423.47 351.91C429.42 346.38 434.58 340.31 441.12 334.20C447.66 328.09 459.11 318.43 462.71 315.27Z"/><path d="M101.31 405.38C97.23 403.07 83.91 397.27 76.83 391.50C69.75 385.73 64.22 378.16 58.83 370.75C53.44 363.35 48.67 355.31 44.50 347.09C40.33 338.86 36.76 330.18 33.83 321.39C30.91 312.59 28.60 303.47 26.95 294.33C25.30 285.19 24.29 275.82 23.94 266.54C23.58 257.25 23.88 247.85 24.82 238.62C25.76 229.39 27.36 220.14 29.55 211.16C31.75 202.18 34.60 193.29 38.00 184.75C41.40 176.20 45.43 167.84 49.94 159.91C54.46 151.98 59.57 144.33 65.09 137.17C70.61 130.01 76.68 123.21 83.08 116.97C89.47 110.72 96.35 104.91 103.47 99.70C110.59 94.49 118.12 89.77 125.79 85.69C133.46 81.61 141.46 78.08 149.50 75.20C157.54 72.32 165.82 70.03 174.04 68.41C182.27 66.79 190.63 65.78 198.84 65.47C207.04 65.15 215.30 65.44 223.27 66.52C231.24 67.59 239.24 68.64 246.67 71.92C254.11 75.19 264.34 83.80 267.88 86.17C264.54 87.74 254.31 93.07 247.87 95.56C241.44 98.06 235.32 99.15 229.25 101.14C223.18 103.14 217.26 105.20 211.46 107.54C205.66 109.88 199.99 112.40 194.47 115.17C188.95 117.93 183.56 120.92 178.33 124.13C173.09 127.35 168.00 130.80 163.09 134.47C158.17 138.15 153.40 142.05 148.83 146.18C144.26 150.30 139.84 154.66 135.64 159.23C131.44 163.80 127.42 168.60 123.62 173.60C119.83 178.61 116.22 183.83 112.88 189.26C109.53 194.69 106.39 200.33 103.53 206.16C100.67 212.00 98.04 218.04 95.72 224.26C93.39 230.48 91.32 236.91 89.58 243.49C87.84 250.07 86.38 256.84 85.28 263.75C84.18 270.66 83.38 277.75 82.96 284.96C82.55 292.16 82.46 299.52 82.78 306.98C83.09 314.44 83.77 322.03 84.84 329.71C85.91 337.40 87.39 345.16 89.20 353.08C91.02 361.00 93.70 368.50 95.72 377.22C97.73 385.94 100.38 400.69 101.31 405.38Z"/><path d="M354.80 308.91Q354.80 335.69 340.47 355.55Q326.14 375.40 300.30 385.14Q274.45 394.88 238.11 394.88Q195.97 394.88 160.95 380.65V307.04Q177.80 319.40 198.22 326.99Q218.63 334.57 236.24 334.57Q249.54 334.57 256.84 329.79Q264.15 325.02 264.15 315.84Q264.15 309.29 260.50 304.32Q256.84 299.36 249.44 295.05Q242.05 290.74 222.01 283.25Q157.20 258.34 157.20 202.71Q157.20 163.76 186.79 140.44Q216.39 117.12 266.21 117.12Q280.25 117.12 292.05 118.24Q303.85 119.37 313.50 121.05Q323.15 122.74 340.56 127.42V195.78Q306.66 177.24 273.89 177.24Q260.40 177.24 252.16 182.30Q243.92 187.36 243.92 196.16Q243.92 204.59 250.57 210.11Q257.22 215.64 278.38 224.44Q320.15 241.30 337.47 261.34Q354.80 281.38 354.80 308.91Z"/></g>
</svg>
